<svg xmlns="http://www.w3.org/2000/svg" viewBox="0 0 145 136"><defs><style>.cls-1{fill:#c94f4f;}</style></defs><title>contact_icone</title><g id="contact_icone" data-name="contact icone"><path class="cls-1" d="M12.25,127.91l103.69-.43,14.54-.06c.8,0,3.82-.37,3.84-1.53.26-16.24-16.15-28.67-29.45-34.13a89.89,89.89,0,0,0-10-3.4c-1.34-.37-5.07-.65-6.11-1.52-.53-.44-.9-2.23-1.09-2.85-2-6.36-.45-10.91,2.74-16.41,4.16-7.17,6.66-16.27,8.08-24.35,2-11.11,1.21-24.19-9-31.15-10.84-7.42-26.7-4.62-35.65,4.56C44,26.76,44.22,42.64,49.17,55a67.64,67.64,0,0,0,6.68,12.44,16.92,16.92,0,0,1,3.08,6.37c.84,3.46,2.87,11.39-.27,14.13-2.2,1.92-7,2.86-9.65,4.09a146.1,146.1,0,0,0-16.52,8.82c-9.07,5.69-21.79,14.6-21,26.77,0,.73,4.72,0,4.65-1.25-.69-11.21,10.68-19.55,19-24.91A151.58,151.58,0,0,1,59.3,89.25c2.19-.9,4-1.7,4.94-4.13,1.55-4.17.25-10.17-1.1-14.25-.77-2.36-2.3-4.09-3.65-6.2a64.46,64.46,0,0,1-6.2-12.28,41.71,41.71,0,0,1-2.55-19.86C51.71,25.2,55,18.16,61,13.65c7.68-5.76,18-4.94,25.4.9,9.32,7.39,9.34,20.53,7.22,31.2-1.5,7.56-3.9,16.06-7.82,22.79-2.71,4.64-4.43,8.17-3.47,13.73.26,1.5.66,4.63,1.8,5.81,1.53,1.59,6.22,1.8,8.43,2.45,15.82,4.69,37.45,17.26,37.14,36.6l3.84-1.53L29.83,126l-14.54.06C14.35,126.1,10.06,127.92,12.25,127.91Z"/></g></svg>