<svg xmlns="http://www.w3.org/2000/svg" viewBox="0 0 145 136"><defs><style>.cls-1{fill:none;stroke:#c94f4f;stroke-miterlimit:10;stroke-width:2.96px;}</style></defs><title>hand_icone</title><g id="hand_icone" data-name="hand icone"><path class="cls-1" d="M56.75,120.27c4.47,1.11,30.58,7.12,48.71.41a2.61,2.61,0,0,0,1.65-2.22c.83-8.26,4.42-45.64,3.83-64.4a2.7,2.7,0,0,0-.42-1.37C109,50.2,103.06,41.89,98,49.78a2.79,2.79,0,0,0-.42,1.43L97.2,71.92,95.47,45.4a2.71,2.71,0,0,0-.58-1.52c-1.55-2-6.32-6.7-11,1.53a2.82,2.82,0,0,0-.35,1.38V73L81.31,43.56s-1.89-13.27-8.79-5.07a2.74,2.74,0,0,0-.61,1.57L69.79,71.71,69,20a2.74,2.74,0,0,0-.49-1.54c-1.87-2.68-8.85-11.31-13.63,1a2.94,2.94,0,0,0-.19,1V65a2.53,2.53,0,0,1-4.55,1.64L42.06,55.67a2.49,2.49,0,0,0-1.28-.92c-2.7-.82-11.2-2.38-9.58,10.92a2.88,2.88,0,0,0,.2.77c1.8,4.29,19.39,46.16,23.87,52.79A2.49,2.49,0,0,0,56.75,120.27Z"/></g></svg>