<svg xmlns="http://www.w3.org/2000/svg" viewBox="0 0 145 136"><defs><style>.cls-1{fill:#c94f4f;}</style></defs><title>home_icone</title><g id="home_icone" data-name="home icone"><path class="cls-1" d="M86.46,128.54h32.67a2.58,2.58,0,0,0,2.54-2.54l1.24-47.94.31-12c0-1.44.43-3.33.07-4.74-.84-3.26-4.9-6.65-7-9.21-.28-.35-1.06-1.76-1.5-1.86-.73-.16.13,1.58.51,1.26s-.09-3.51-.1-4l-.72-27.43A2.58,2.58,0,0,0,112,17.6H96.46a2.58,2.58,0,0,0-2.54,2.54V36.89l4.34-1.8L70.25,7a2.58,2.58,0,0,0-3.59,0L23.23,50.59c-1.92,1.93-4.58,3.89-6.13,6.16-1.18,1.73-.86,3.56-.86,5.61V126a2.58,2.58,0,0,0,2.54,2.54H51.12A2.58,2.58,0,0,0,53.66,126V77.09l-2.54,2.54h36l-2.54-2.54L83.92,126c0,3.27,5,3.27,5.08,0l.67-48.91a2.57,2.57,0,0,0-2.54-2.54h-36a2.58,2.58,0,0,0-2.54,2.54V126l2.54-2.54H18.79L21.33,126V66.05c0-.5.37-7.24,0-7.37,1,.34-2,2.76.5.53,1.2-1,2.27-2.28,3.39-3.41L50.31,30.58l19.94-20H66.66l28,28.14A2.57,2.57,0,0,0,99,36.89V20.14l-2.54,2.54H112l-2.54-2.54L110.05,44c.07,2.5-.51,6,.3,8.45,1,3.13,4.89,6.36,6.93,8.87.15.18,1.27,1.86,1.5,1.86.39,0-.48-1.42-.52-1.34a7.21,7.21,0,0,0-.06,2.32l-.26,10.08-.8,30.8L116.59,126l2.54-2.54H86.46C83.19,123.46,83.19,128.54,86.46,128.54Z"/></g></svg>