<svg xmlns="http://www.w3.org/2000/svg" viewBox="0 0 145 136"><defs><style>.cls-1{fill:#c94f4f;}</style></defs><title>refresh_icone</title><g id="refresh_icone" data-name="refresh icone"><path class="cls-1" d="M29.35,32.26C49.49,34.17,72.41,41.67,86.19,57l-.39-3L76.94,73.09a2.53,2.53,0,0,0,2.15,3.75c14.94.28,30.38.49,45.15-2,4.56-.75,10.34-1.62,9.5-7.23-1.27-8.43-2.68-16.84-4.18-25.23-1.93-10.81-3.63-22-7.18-32.43a2.53,2.53,0,0,0-4.56-.6c-3.81,5.94-7.68,11.92-10.9,18.2h4.31C105.68,19.76,97,13.67,88.11,10.37c-22-8.15-44,3.36-60.53,17.63-2.43,2.1,1.11,5.62,3.53,3.53,15.43-13.34,36-24.18,56.5-16,7.27,2.89,15.22,8.83,19.31,14.62,1,1.42,3.39,1.8,4.31,0,3.22-6.28,7.1-12.26,10.9-18.2l-4.56-.6c3.79,11.14,5.55,23.13,7.58,34.69q2.15,12.2,4,24.45L129.8,68c-2.14,2.15-7.64,2.2-10.41,2.52-5.77.66-11.59.93-17.39,1.12q-11.44.37-22.91.17l2.15,3.75L90.11,56.5a2.62,2.62,0,0,0-.39-3C75,37.13,50.77,29.3,29.35,27.27,26.16,27,26.18,32,29.35,32.26Z"/><path class="cls-1" d="M53.31,84.71l12.27-20c1.21-2-.78-4.08-2.82-3.67L13,71a2.53,2.53,0,0,0-1.74,3.07L23.54,126c.53,2.24,3.41,2.26,4.56.6l12.61-18.2-3.92.51c21.12,19.27,55.59,32.1,78.14,8.19a2.53,2.53,0,0,0-1.76-4.26c-22.54-2.14-45.94-13.57-60.24-31.12-2-2.49-5.54,1.06-3.53,3.53,15.16,18.61,40,30.31,63.77,32.58l-1.76-4.26c-13.06,13.85-30.81,14.31-47.47,7a88.28,88.28,0,0,1-23.62-15.15,2.54,2.54,0,0,0-3.92.51L23.79,124l4.56.6L16.09,72.78l-1.74,3.07,49.74-10-2.82-3.67L49,82.19C47.32,84.94,51.63,87.45,53.31,84.71Z"/></g></svg>